<?xml version="1.0" standalone="no"?>
<!DOCTYPE svg PUBLIC "-//W3C//DTD SVG 20010904//EN"
 "http://www.w3.org/TR/2001/REC-SVG-20010904/DTD/svg10.dtd">
<svg version="1.0" xmlns="http://www.w3.org/2000/svg"
 width="640.000000pt" height="640.000000pt" viewBox="0 0 640.000000 640.000000"
 preserveAspectRatio="xMidYMid meet">
<metadata>
Created by potrace 1.14, written by Peter Selinger 2001-2017
</metadata>
<g transform="translate(0.000000,640.000000) scale(0.100000,-0.100000)"
fill="#000000" stroke="none">
<path d="M0 5580 c0 -451 3 -820 8 -820 20 1 34 19 28 36 -4 10 -4 15 0 11 4
-3 16 12 27 35 11 22 37 52 58 67 21 14 40 36 44 49 3 12 17 28 31 34 17 8 24
18 21 29 -5 18 6 24 88 50 22 7 48 20 57 28 16 13 118 30 193 33 32 1 118 -9
148 -18 10 -3 17 0 17 8 0 12 14 13 76 6 42 -4 88 -15 103 -23 14 -8 64 -19
111 -25 67 -8 110 -22 210 -66 182 -82 175 -79 303 -122 26 -9 47 -19 47 -24
0 -4 7 -8 15 -8 8 0 15 -4 15 -10 0 -5 25 -10 55 -10 37 0 55 4 55 13 0 11 87
57 108 57 10 0 52 55 52 70 0 5 4 10 9 10 16 0 31 60 36 144 6 82 8 91 28 91
7 0 13 9 14 20 13 87 29 132 62 163 18 17 40 32 47 32 8 0 14 6 14 14 0 8 13
23 30 33 16 9 30 21 30 25 0 4 13 8 29 8 16 0 31 6 35 15 3 8 10 15 16 15 11
0 70 39 81 53 3 4 31 12 62 17 31 5 72 16 90 25 18 8 64 18 101 20 38 2 74 9
81 15 17 14 328 34 390 24 28 -4 100 -8 160 -8 108 -1 112 -2 200 -44 50 -23
98 -47 107 -52 10 -6 23 -10 29 -10 16 0 139 -127 139 -143 0 -7 33 -43 74
-80 41 -37 81 -83 90 -102 9 -18 25 -37 36 -40 10 -3 22 -15 25 -26 4 -10 11
-19 16 -19 5 0 23 -10 39 -22 29 -21 62 -25 170 -20 94 4 521 -9 563 -17 47
-9 160 -18 353 -27 38 -1 120 -9 182 -17 112 -13 113 -14 153 -53 23 -23 44
-55 48 -75 7 -33 14 -757 15 -1607 1 -392 2 -422 18 -422 10 0 22 -9 28 -20 9
-16 8 -20 -7 -21 -15 0 -14 -2 4 -9 26 -11 39 -46 23 -65 -9 -11 -9 -15 -1
-15 6 0 11 -11 11 -25 0 -27 -2 -28 -92 -27 -61 1 -72 -5 -57 -28 5 -8 9 -10
9 -4 0 8 22 11 65 10 65 -1 72 -6 59 -40 -7 -18 -94 -23 -94 -6 0 6 -4 10 -9
10 -5 0 -7 -9 -4 -20 4 -14 14 -20 34 -20 30 0 36 -8 20 -25 -5 -6 -6 -61 -1
-135 12 -169 12 -954 0 -1010 -5 -25 -9 -48 -10 -52 0 -4 -13 -20 -29 -36 -43
-41 -89 -48 -511 -82 -74 -6 -180 -15 -235 -20 -241 -24 -440 -42 -575 -51
-80 -5 -206 -15 -280 -22 -74 -8 -142 -13 -150 -11 -14 2 -16 -18 -15 -144 0
-162 -16 -235 -76 -354 -30 -59 -47 -70 -69 -43 -7 8 -16 13 -20 10 -5 -3 -12
0 -15 6 -4 5 -13 8 -19 6 -11 -5 -37 24 -35 39 0 3 -8 12 -18 19 -14 11 -15
16 -6 26 10 10 8 18 -9 36 -12 13 -17 23 -11 23 9 0 32 38 29 50 0 3 9 21 22
41 12 20 22 46 22 57 0 11 4 24 10 27 6 3 10 19 10 36 0 30 -9 34 -57 30 -13
-1 -35 6 -49 16 -31 20 -49 22 -109 13 -34 -5 -45 -4 -45 7 0 18 -4 17 -57
-20 -48 -33 -99 -43 -203 -39 -90 3 -117 0 -145 -17 -29 -17 -30 -20 -28 -84
1 -37 7 -77 14 -88 6 -11 11 -62 11 -111 0 -75 -3 -93 -16 -100 -10 -5 -21
-21 -26 -34 -8 -20 -16 -24 -55 -24 -25 0 -45 -4 -45 -9 0 -5 -18 -11 -39 -15
-67 -10 -62 -29 5 -20 108 14 272 0 281 -23 3 -8 0 -19 -7 -23 -10 -6 -9 -9 1
-13 10 -4 10 -6 2 -6 -7 -1 -13 -7 -13 -14 0 -7 -13 -14 -29 -15 -23 -2 -31 3
-37 20 l-8 23 -6 -25 c-5 -20 -13 -26 -43 -28 -34 -3 -37 -1 -37 22 0 32 -12
33 -25 4 -11 -25 -65 -39 -65 -17 0 8 -11 10 -35 6 -30 -5 -40 -1 -65 23 -16
15 -38 31 -50 35 -14 5 -20 14 -18 28 2 17 -2 21 -15 19 -20 -3 -57 32 -57 55
0 8 -10 33 -21 55 -36 70 -59 148 -74 250 -15 99 -19 323 -7 412 6 43 10 50
32 52 14 1 106 5 205 9 99 4 224 10 278 14 53 3 97 4 97 1 0 -9 223 -5 238 3
7 5 12 3 12 -5 0 -9 3 -9 10 2 5 8 9 69 9 135 l-1 120 -39 34 -39 33 -21 -26
c-24 -31 -49 -34 -49 -6 0 11 7 20 16 20 10 0 13 6 9 19 -9 28 15 71 39 71 30
0 43 -11 56 -45 11 -28 13 -28 20 -10 12 28 12 35 -1 35 -16 0 -75 67 -100
114 -17 31 -18 40 -7 47 7 5 18 7 23 5 6 -2 17 -7 27 -11 17 -7 23 4 32 57 3
15 7 32 11 38 3 5 8 22 10 37 4 27 22 102 31 132 3 9 8 10 17 3 9 -8 16 -6 25
9 14 22 91 59 123 59 12 0 16 5 13 15 -4 8 -1 22 6 29 9 12 4 16 -33 21 -24 4
-57 5 -73 4 -48 -5 -131 12 -148 30 -27 29 -76 185 -76 240 0 34 33 66 80 78
35 10 35 10 34 64 -2 82 -14 170 -24 164 -5 -3 -11 -1 -15 5 -9 15 -25 2 -25
-20 0 -11 -10 -20 -25 -24 -13 -3 -36 -17 -51 -31 -15 -14 -35 -25 -45 -25 -9
0 -19 -6 -21 -12 -3 -7 -19 -13 -38 -14 -35 -2 -150 -52 -150 -66 0 -4 -13 -8
-30 -8 -16 0 -30 -4 -30 -9 0 -5 -26 -22 -57 -37 -32 -16 -59 -32 -61 -35 -2
-4 -11 -5 -21 -2 -12 3 -20 -2 -24 -16 -3 -12 -13 -21 -25 -21 -11 0 -25 -7
-32 -15 -6 -8 -22 -17 -33 -21 -12 -4 -32 -17 -44 -30 -12 -13 -26 -24 -31
-24 -19 0 -92 -73 -92 -91 0 -11 -3 -18 -7 -18 -25 4 -43 -3 -43 -16 0 -8 -4
-15 -9 -15 -5 0 -11 -10 -15 -22 -5 -19 -8 -21 -16 -8 -7 11 -10 7 -11 -20 0
-19 -3 -29 -6 -22 -7 18 -30 15 -37 -5 -3 -10 -9 -24 -12 -32 -5 -11 -2 -12
12 -7 16 6 17 5 6 -6 -10 -10 -53 -13 -165 -13 -185 0 -247 17 -412 108 -60
34 -227 180 -259 227 -9 14 -32 45 -51 70 -85 113 -155 304 -194 530 -11 63
-25 138 -31 165 -15 67 -3 465 17 564 8 42 11 85 7 100 -4 14 -8 30 -8 36 -2
17 -35 17 -53 0 -12 -12 -26 -15 -51 -11 -21 3 -49 -1 -70 -10 -20 -8 -42 -12
-49 -9 -8 2 -12 1 -9 -4 3 -4 -5 -13 -17 -19 -21 -10 -40 -14 -132 -27 -22 -4
-58 -11 -79 -17 -52 -13 -294 -12 -310 1 -7 6 -15 9 -17 7 -2 -2 -24 5 -49 17
-66 32 -106 101 -140 242 -24 104 -42 170 -46 174 -2 2 -4 -982 -4 -2187 l0
-2192 3200 0 3200 0 0 3200 0 3200 -3200 0 -3200 0 0 -820z m2165 -3310 c-3
-5 -12 -10 -18 -10 -7 0 -6 4 3 10 19 12 23 12 15 0z m1408 -1725 c11 -5 17
-18 17 -37 0 -17 -4 -27 -10 -23 -5 3 -10 12 -10 20 0 7 -7 15 -14 18 -10 4
-13 1 -9 -10 3 -8 0 -19 -8 -24 -20 -13 -29 -11 -29 6 0 8 -4 15 -10 15 -5 0
-10 -7 -10 -15 0 -18 -37 -20 -42 -3 -3 8 -19 12 -42 10 -34 -3 -37 -2 -34 19
2 15 12 26 28 30 29 9 147 4 173 -6z m-213 -31 c0 -8 -4 -12 -10 -9 -5 3 -10
10 -10 16 0 5 5 9 10 9 6 0 10 -7 10 -16z"/>
<path d="M4260 4613 c-45 -30 -124 -106 -162 -156 -41 -53 -47 -86 -22 -111
31 -32 56 -19 146 75 l86 91 51 -12 c28 -6 51 -15 51 -19 0 -4 -18 -25 -40
-46 -22 -21 -40 -45 -40 -52 0 -38 88 11 117 65 23 43 12 61 -55 87 -44 17
-52 24 -52 46 0 48 -36 62 -80 32z"/>
<path d="M4130 4326 l-75 -11 1 -87 c1 -113 17 -141 77 -137 68 3 66 5 52 -60
-14 -66 -7 -81 32 -81 26 0 44 32 63 108 6 23 16 42 21 42 6 0 8 -8 5 -17 -4
-9 -9 -35 -13 -58 -7 -57 9 -68 105 -68 94 0 122 8 122 34 0 16 -7 19 -47 19
-38 1 -44 3 -30 11 18 11 23 54 7 64 -6 4 -8 11 -4 16 3 5 9 7 14 4 19 -11 41
10 65 62 34 74 33 125 -1 152 -24 19 -39 21 -173 20 -80 -1 -180 -7 -221 -13z
m361 -53 c10 -10 8 -23 -11 -63 -19 -41 -28 -50 -49 -50 -14 0 -50 -3 -79 -6
l-54 -6 7 55 c12 92 -32 85 -74 -14 -26 -59 -48 -64 -56 -11 -4 20 -11 50 -16
66 -5 16 -9 33 -9 38 0 15 326 6 341 -9z m-116 -193 c-9 -27 2 -58 23 -63 9
-3 0 -5 -20 -6 -42 -1 -48 12 -28 63 11 31 34 36 25 6z"/>
<path d="M4142 3778 c-20 -26 -60 -135 -73 -201 -14 -76 -8 -100 30 -105 41
-6 49 10 77 146 4 20 10 22 63 22 65 0 82 -12 79 -53 -2 -24 -7 -26 -73 -34
l-70 -8 -11 -50 c-7 -27 -13 -76 -13 -107 -1 -57 -1 -57 -36 -64 -71 -13 -32
-24 85 -24 l120 0 0 -26 c0 -36 17 -64 39 -64 25 0 38 18 46 63 l7 37 69 0
c62 0 69 2 69 20 0 18 -7 20 -70 20 l-70 0 0 75 0 75 56 0 c47 0 55 3 52 18
-2 12 -18 20 -58 26 -60 10 -70 18 -70 56 0 25 0 25 81 21 74 -3 81 -2 77 15
-4 24 -45 32 -219 40 l-135 7 4 53 c4 52 4 54 -21 54 -13 0 -29 -6 -35 -12z
m178 -353 l0 -85 -34 0 c-41 0 -46 10 -46 101 l0 69 40 0 40 0 0 -85z"/>
<path d="M3062 3693 c-12 -2 -20 -9 -17 -14 3 -5 0 -6 -8 -3 -21 8 -107 -56
-107 -79 0 -10 -5 -28 -11 -39 -15 -29 -15 -114 1 -133 20 -25 74 -18 132 17
29 17 63 38 76 45 12 8 22 23 22 36 0 35 -11 67 -22 61 -5 -3 -6 6 -3 23 5 21
4 25 -4 13 -8 -11 -9 -3 -5 33 7 51 6 51 -54 40z m-84 -73 c-7 -10 -14 -17
-17 -15 -4 4 18 35 25 35 2 0 -1 -9 -8 -20z"/>
<path d="M2085 3314 c-106 -39 -172 -172 -134 -271 11 -29 26 -43 47 -43 10 0
9 7 -3 30 -8 16 -15 41 -15 56 l0 28 25 -34 c30 -40 60 -59 95 -59 20 0 18 2
-13 14 -47 16 -46 15 -57 54 -5 19 -5 31 1 31 6 0 6 7 -1 19 -5 11 -10 28 -9
38 0 11 5 6 11 -12 39 -111 119 -135 240 -74 43 22 52 24 42 7 -4 -7 -3 -8 5
-4 6 4 9 12 6 17 -4 5 6 9 22 9 15 0 36 7 46 14 17 14 18 16 2 47 -10 18 -39
54 -65 79 -69 67 -156 86 -245 54z m65 -73 c0 -5 -6 -11 -12 -14 -18 -6 -39 3
-32 14 7 12 44 12 44 0z"/>
<path d="M2816 3257 c-33 -20 -65 -55 -58 -62 4 -4 -6 -5 -23 -1 -16 3 -37 2
-45 -4 -8 -5 -10 -10 -5 -10 6 0 -1 -7 -15 -15 l-25 -14 32 -1 c18 0 44 5 59
12 23 11 28 10 40 -7 13 -18 14 -18 14 4 0 13 14 39 30 58 42 47 40 67 -4 40z"/>
<path d="M2987 3144 c-16 -19 -35 -34 -43 -34 -8 0 -14 -4 -14 -9 0 -5 -18
-13 -40 -19 -37 -9 -43 -8 -64 13 l-23 23 1 -28 c1 -15 4 -26 9 -23 4 2 7 1 7
-4 -1 -14 -88 -75 -128 -89 -20 -7 -48 -13 -63 -14 -29 0 -49 -17 -49 -42 0
-24 22 -23 45 2 9 10 45 28 79 40 33 11 80 35 103 54 24 18 67 41 95 51 29 9
74 34 100 56 26 21 52 39 58 39 6 0 8 5 5 10 -12 20 -51 8 -78 -26z"/>
<path d="M4116 3048 c-8 -13 -20 -35 -27 -50 -9 -20 -21 -28 -50 -33 -47 -8
-52 -33 -9 -41 17 -4 30 -8 30 -10 0 -2 -7 -29 -15 -61 -8 -31 -15 -88 -15
-125 0 -75 10 -88 72 -88 50 0 62 -12 54 -53 -7 -40 5 -82 28 -90 24 -9 54 25
62 70 3 21 16 48 27 60 15 17 17 26 9 36 -7 8 -8 26 -2 52 5 22 12 70 15 108
6 55 11 67 25 67 26 0 33 28 11 40 -11 5 -51 15 -90 22 l-71 12 0 34 c0 36
-15 72 -30 72 -5 0 -16 -10 -24 -22z m120 -151 c2 -2 -11 -51 -30 -108 -31
-95 -36 -104 -57 -101 -12 1 -25 5 -28 8 -7 7 15 152 29 188 9 26 14 28 46 23
20 -4 38 -8 40 -10z"/>
<path d="M4288 3013 c-38 -10 -17 -31 45 -43 55 -11 106 -23 146 -36 8 -3 -8
-27 -48 -69 -70 -75 -79 -112 -36 -141 37 -24 31 -43 -15 -50 -89 -14 -93 -56
-5 -47 l55 6 0 -61 c0 -64 14 -81 49 -62 23 12 51 70 51 104 0 22 4 26 30 26
28 0 51 22 37 36 -5 6 -32 12 -57 13 -8 1 -26 17 -39 36 l-24 35 45 58 c54 68
68 94 68 121 0 30 -38 60 -84 65 -70 9 -200 14 -218 9z"/>
<path d="M2915 3001 c-3 -6 -13 -11 -21 -11 -9 0 -22 -6 -30 -14 -12 -13 -11
-15 9 -13 24 2 64 34 54 43 -3 3 -8 1 -12 -5z"/>
<path d="M5354 2798 c-3 -4 20 -8 50 -8 30 0 57 3 59 8 3 4 -20 7 -49 8 -30 0
-57 -3 -60 -8z"/>
<path d="M3275 2620 c-4 -6 6 -10 22 -10 22 0 25 2 13 10 -19 12 -27 12 -35 0z"/>
<path d="M3397 2529 c7 -7 15 -10 18 -7 3 3 -2 9 -12 12 -14 6 -15 5 -6 -5z"/>
<path d="M3361 2456 c12 -10 59 -15 59 -6 0 5 -14 10 -32 10 -17 0 -29 -2 -27
-4z"/>
<path d="M3285 2400 c-2 -4 21 -10 52 -13 53 -6 73 -3 62 7 -8 8 -109 14 -114
6z"/>
<path d="M4241 2341 c-51 -9 -50 -29 1 -35 83 -10 274 -17 291 -11 9 4 17 15
17 25 0 13 -12 19 -52 24 -64 7 -210 6 -257 -3z"/>
<path d="M4056 2304 c-15 -38 4 -99 33 -107 35 -9 61 11 61 46 0 56 -77 106
-94 61z"/>
<path d="M4030 2160 c0 -14 7 -20 23 -20 12 0 28 -4 36 -9 12 -8 12 -13 -3
-36 -15 -22 -18 -52 -20 -157 -1 -118 0 -131 17 -140 14 -7 27 -7 44 1 15 7
103 11 239 11 184 0 215 2 221 15 3 9 3 18 1 21 -3 2 -99 4 -215 4 l-210 1 -6
60 c-3 33 -10 65 -15 72 -24 30 -23 57 2 94 36 52 34 78 -5 92 -18 6 -49 11
-70 11 -32 0 -39 -3 -39 -20z"/>
<path d="M4325 2133 c-82 -7 -145 -24 -145 -39 0 -10 13 -14 46 -14 43 0 46
-1 40 -22 -18 -60 -28 -138 -22 -161 5 -23 12 -27 41 -27 19 0 35 4 35 9 0 10
44 30 95 41 34 8 36 7 42 -21 11 -55 94 -47 92 9 -1 43 -32 124 -52 136 -14 9
-21 7 -33 -8 -8 -11 -14 -29 -14 -41 0 -20 -14 -28 -89 -50 l-24 -7 6 63 c5
43 13 68 24 77 10 7 48 12 92 12 82 0 107 9 98 34 -5 13 -22 16 -99 14 -51 -1
-111 -3 -133 -5z"/>
<path d="M3132 1910 c0 -14 2 -19 5 -12 2 6 2 18 0 25 -3 6 -5 1 -5 -13z"/>
<path d="M3055 1909 c-4 -6 -4 -13 -1 -16 3 -4 6 -1 6 6 0 7 5 9 12 5 7 -4 8
-3 4 4 -9 15 -13 15 -21 1z"/>
<path d="M3131 1854 c0 -11 3 -14 6 -6 3 7 2 16 -1 19 -3 4 -6 -2 -5 -13z"/>
<path d="M3090 1846 c0 -2 8 -10 18 -17 15 -13 16 -12 3 4 -13 16 -21 21 -21
13z"/>
<path d="M3060 1766 c0 -9 5 -16 10 -16 6 0 10 4 10 9 0 6 -4 13 -10 16 -5 3
-10 -1 -10 -9z"/>
</g>
</svg>
